PathFileType	4	(X/Y/Z)	output_15markers.trc
DataRate	CameraRate	NumFrames	NumMarkers	Units	OrigDataRate	OrigDataStartFrame	OrigNumFrames
30	30	18	15	m	30	545	1089
Frame#	Time	Hip			RHip			RKnee			RAnkle			LHip			LKnee			LAnkle			Neck			Head			RShoulder			RElbow			RWrist			LShoulder			LElbow			LWrist
		X1	Y1	Z1	X2	Y2	Z2	X3	Y3	Z3	X4	Y4	Z4	X5	Y5	Z5	X6	Y6	Z6	X7	Y7	Z7	X8	Y8	Z8	X9	Y9	Z9	X10	Y10	Z10	X11	Y11	Z11	X12	Y12	Z12	X13	Y13	Z13	X14	Y14	Z14	X15	Y15	Z15

545	18.133333	-0.000036	0.791553	-0.000180	0.033817	0.780689	-0.081827	0.048718	0.406741	-0.089098	0.214321	0.000000	-0.037864	-0.033803	0.802401	0.081800	-0.024840	0.410298	0.083712	0.074369	0.012566	0.147461	-0.126968	1.445333	-0.060446	-0.021575	1.482618	-0.071303	-0.004219	1.248403	-0.169267	0.137344	1.026598	-0.242611	0.137995	0.781028	-0.286171	-0.058500	1.252038	0.103733	0.026209	1.013574	0.217852	0.031851	0.782480	0.241525
546	18.166667	-0.000037	0.787458	-0.000178	0.026325	0.776590	-0.082525	0.037949	0.410232	-0.084304	0.202872	0.000000	-0.046385	-0.026311	0.798310	0.082497	-0.025344	0.408470	0.084872	0.067524	0.009979	0.137678	-0.125022	1.443502	-0.049648	-0.016431	1.478895	-0.060844	-0.010438	1.243808	-0.168196	0.126619	1.022482	-0.250971	0.127782	0.779459	-0.289779	-0.049943	1.246287	0.104854	0.038646	1.007383	0.214622	0.041175	0.777994	0.240301
547	18.200000	-0.000038	0.777476	-0.000177	0.016701	0.768354	-0.080202	0.026452	0.411164	-0.073509	0.190550	0.000000	-0.057731	-0.016687	0.786587	0.080175	-0.027136	0.402046	0.086673	0.066635	0.009033	0.132033	-0.121183	1.438260	-0.044817	-0.008705	1.470471	-0.058418	-0.016424	1.231348	-0.165535	0.118702	1.017943	-0.265438	0.115951	0.770309	-0.293786	-0.040892	1.237296	0.104901	0.052714	1.000382	0.210719	0.056888	0.773691	0.241943
548	18.233333	-0.000037	0.776700	-0.000173	0.014541	0.766348	-0.078577	0.028103	0.410123	-0.071129	0.188121	0.000000	-0.058484	-0.014531	0.787041	0.078557	-0.016897	0.400552	0.086657	0.074000	0.011513	0.133444	-0.119042	1.434154	-0.035113	-0.013464	1.469096	-0.047929	-0.021781	1.232169	-0.158781	0.103945	1.016088	-0.268274	0.092765	0.768188	-0.302921	-0.037610	1.233367	0.104037	0.050941	0.993487	0.208869	0.046172	0.771089	0.240976
549	18.266667	-0.000038	0.775440	-0.000171	0.010009	0.765766	-0.078270	0.018562	0.420039	-0.066913	0.172906	0.000000	-0.062079	-0.009997	0.785101	0.078247	-0.017646	0.407306	0.089111	0.077289	0.015120	0.132468	-0.120524	1.434537	-0.030001	-0.011308	1.468867	-0.042571	-0.024494	1.229742	-0.160926	0.101918	1.019836	-0.278087	0.087959	0.773522	-0.299242	-0.033529	1.232696	0.104628	0.059326	0.993972	0.204408	0.051747	0.777155	0.229546
550	18.300000	-0.000038	0.785004	-0.000168	0.008767	0.774130	-0.077752	0.023555	0.419662	-0.071003	0.174943	0.000000	-0.066199	-0.008757	0.795862	0.077732	-0.000692	0.411904	0.088793	0.101612	0.021722	0.134867	-0.115863	1.441050	-0.023422	-0.012027	1.476723	-0.037384	-0.028210	1.237392	-0.160557	0.090326	1.025523	-0.284625	0.072377	0.773539	-0.304717	-0.031587	1.239796	0.098796	0.053725	0.997364	0.197728	0.041381	0.776447	0.223488
551	18.333333	-0.000041	0.786411	-0.000166	0.006577	0.776364	-0.074752	0.014917	0.429220	-0.067708	0.156518	0.000000	-0.064565	-0.006566	0.796444	0.074731	-0.002310	0.419765	0.089268	0.096607	0.027355	0.130835	-0.114971	1.444743	-0.019139	-0.009519	1.479210	-0.032270	-0.028985	1.241186	-0.154433	0.088732	1.035672	-0.284090	0.067640	0.779960	-0.293689	-0.027064	1.238157	0.098005	0.062513	0.995223	0.184405	0.046349	0.788377	0.214362
552	18.366667	-0.000040	0.785169	-0.000163	0.002654	0.774469	-0.073737	0.013951	0.430790	-0.064655	0.150715	0.000000	-0.063516	-0.002646	0.795856	0.073720	0.001565	0.420295	0.090355	0.098720	0.028262	0.129198	-0.113848	1.443564	-0.011972	-0.010144	1.478769	-0.026698	-0.032659	1.237586	-0.152918	0.082580	1.036004	-0.283034	0.061549	0.779828	-0.285494	-0.023353	1.238782	0.096281	0.067848	0.997205	0.178991	0.058871	0.787943	0.203978
553	18.400000	-0.000041	0.782967	-0.000163	0.000655	0.771920	-0.071951	0.013972	0.428941	-0.062058	0.151221	0.000000	-0.060262	-0.000648	0.794001	0.071936	0.000629	0.420717	0.086825	0.096921	0.028500	0.125284	-0.110154	1.441698	-0.005786	-0.008771	1.476701	-0.022806	-0.034458	1.235038	-0.149007	0.077406	1.034137	-0.285203	0.057785	0.778806	-0.278830	-0.018755	1.235640	0.092155	0.070207	0.993566	0.168081	0.061167	0.784841	0.188290
554	18.433333	-0.000041	0.780689	-0.000164	0.001045	0.769256	-0.070091	0.014205	0.423545	-0.066525	0.155189	0.000000	-0.057605	-0.001039	0.792110	0.070077	0.003468	0.418744	0.085789	0.104564	0.031639	0.129558	-0.111055	1.439496	0.003129	-0.011915	1.474729	-0.016133	-0.034640	1.235657	-0.142960	0.079768	1.036148	-0.276826	0.063223	0.782227	-0.266245	-0.019829	1.230616	0.091548	0.065120	0.987445	0.164655	0.054103	0.783330	0.178268
555	18.466667	-0.000044	0.791205	-0.000161	-0.001235	0.781126	-0.068855	0.014543	0.425939	-0.067137	0.151223	0.000000	-0.062865	0.001241	0.801271	0.068842	0.015158	0.420659	0.084461	0.119316	0.035105	0.131446	-0.112127	1.445855	0.009253	-0.015752	1.481131	-0.008050	-0.039325	1.242888	-0.138289	0.068117	1.042846	-0.275252	0.044976	0.789414	-0.263222	-0.020711	1.237682	0.093718	0.057180	0.990175	0.155430	0.038455	0.787745	0.172505
556	18.500000	-0.000043	0.784157	-0.000162	-0.002432	0.772842	-0.068228	0.009363	0.421470	-0.067496	0.150554	0.000000	-0.054034	0.002436	0.795461	0.068218	0.010110	0.419079	0.085306	0.113417	0.033033	0.129415	-0.111075	1.440883	0.016346	-0.015318	1.475864	-0.002731	-0.039455	1.238754	-0.131511	0.071836	1.040955	-0.265966	0.060235	0.783826	-0.248280	-0.016166	1.231903	0.092879	0.062194	0.984042	0.149978	0.046783	0.784546	0.165129
557	18.533333	-0.000043	0.779148	-0.000164	-0.003819	0.767736	-0.067932	0.008412	0.421134	-0.069151	0.151884	0.000000	-0.051453	0.003824	0.790550	0.067922	0.009248	0.418953	0.086394	0.112908	0.030820	0.128309	-0.113587	1.434461	0.025664	-0.017147	1.469399	0.002867	-0.042571	1.233313	-0.125535	0.066923	1.038662	-0.264463	0.054243	0.782341	-0.245576	-0.014862	1.225979	0.096099	0.061070	0.976283	0.146044	0.043664	0.778899	0.160668
558	18.566667	-0.000043	0.785008	-0.000161	-0.005599	0.773879	-0.067874	0.007331	0.423309	-0.067830	0.143509	0.000000	-0.049813	0.005603	0.796127	0.067864	0.015742	0.421437	0.084990	0.120105	0.031113	0.127039	-0.113442	1.437144	0.033700	-0.021989	1.473451	0.011879	-0.046837	1.236848	-0.123835	0.056010	1.037617	-0.264218	0.036350	0.784281	-0.247689	-0.013052	1.230689	0.097370	0.062217	0.980230	0.144898	0.043845	0.781379	0.161760
559	18.600000	-0.000043	0.786406	-0.000162	-0.007474	0.775101	-0.067395	0.005821	0.422120	-0.063817	0.138813	0.000000	-0.041652	0.007478	0.797701	0.067386	0.019503	0.419078	0.087526	0.123382	0.031144	0.132271	-0.112810	1.438183	0.042039	-0.023487	1.475285	0.021649	-0.049384	1.240034	-0.118440	0.048824	1.039976	-0.264122	0.023936	0.786988	-0.249280	-0.008764	1.229941	0.100724	0.067700	0.979642	0.148423	0.049051	0.782330	0.169650
560	18.633333	-0.000043	0.782726	-0.000165	-0.008976	0.772247	-0.067907	0.007236	0.418391	-0.065583	0.140622	0.000000	-0.039565	0.008979	0.793196	0.067898	0.019268	0.412969	0.087459	0.119724	0.027621	0.129594	-0.115764	1.431631	0.049834	-0.028634	1.468735	0.028396	-0.051446	1.236688	-0.118271	0.049166	1.036649	-0.265535	0.029177	0.778996	-0.250565	-0.006964	1.228800	0.103935	0.069519	0.979096	0.147638	0.054786	0.781955	0.170235
561	18.666667	-0.000046	0.785643	-0.000168	-0.011828	0.774335	-0.070841	-0.000897	0.417800	-0.067526	0.133105	0.000000	-0.043074	0.011833	0.796941	0.070831	0.025116	0.416905	0.088655	0.124520	0.026341	0.135184	-0.111824	1.433281	0.066013	-0.025276	1.469344	0.043089	-0.054835	1.239444	-0.119549	0.040811	1.036546	-0.263777	0.017887	0.777043	-0.256833	-0.001336	1.229003	0.106156	0.073461	0.978529	0.160607	0.052138	0.778367	0.180433
562	18.700000	-0.000045	0.783637	-0.000171	-0.016042	0.770469	-0.071911	-0.002648	0.414593	-0.062525	0.130232	0.000000	-0.036729	0.016048	0.796792	0.071898	0.024539	0.414308	0.089645	0.118381	0.023168	0.134687	-0.113095	1.429676	0.078086	-0.030104	1.465546	0.057140	-0.060579	1.242498	-0.118622	0.036478	1.039401	-0.266762	0.013758	0.782323	-0.264186	0.005543	1.233196	0.109474	0.089416	0.985467	0.166069	0.072431	0.783858	0.190846
